<svg width="32" height="32" viewBox="0 0 32 32" fill="none" xmlns="http://www.w3.org/2000/svg">
<path d="M17.3333 8.08V4H14.6667V8.08C8.66667 8.74667 4 13.8267 4 19.9867C4 21.4667 5.2 22.6667 6.68 22.6667H10.6667C10.6667 25.6133 13.0533 28 16 28C18.9467 28 21.3333 25.6133 21.3333 22.6667H25.32C26.8 22.6667 28 21.4667 28 19.9867C28 13.8267 23.3333 8.74667 17.3333 8.08ZM16 25.3333C14.5333 25.3333 13.3333 24.1333 13.3333 22.6667H16H18.6667C18.6667 24.1333 17.4667 25.3333 16 25.3333ZM16 20H6.66667C6.66667 14.8533 10.8533 10.6667 16 10.6667C21.1467 10.6667 25.3333 14.8533 25.3333 20H16Z" fill="black"/>
</svg>
